<?xml version="1.0" encoding="UTF-8"?>
<!-- Generator: visioncortex VTracer 0.6.3 -->
<svg version="1.1" xmlns="http://www.w3.org/2000/svg" width="1280" height="1280">
<path d="M0 0 C422.4 0 844.8 0 1280 0 C1280 281.82 1280 563.64 1280 854 C857.6 854 435.2 854 0 854 C0 572.18 0 290.36 0 0 Z " fill="#D60025" transform="translate(0,212)"/>
<path d="M0 0 C0.99 0 1.98 0 3 0 C9.27 19.2 15.52 38.4 21.71 57.62 C22.32 59.5 22.32 59.5 22.94 61.42 C24.61 66.61 26.28 71.8 27.95 76.99 C32.75 91.89 37.57 106.78 42.47 121.65 C42.91 123.01 43.36 124.36 43.81 125.72 C46.37 133.51 46.37 133.51 48.95 141.3 C50.12 144.84 51.28 148.37 52.45 151.91 C52.97 153.47 52.97 153.47 53.5 155.06 C53.82 156.02 54.13 156.99 54.46 157.98 C54.73 158.81 55.01 159.64 55.29 160.49 C56.09 163.31 56.54 166.11 57 169 C57.92 169 58.85 169.01 59.8 169.01 C82.27 169.09 104.73 169.18 127.2 169.29 C138.06 169.34 148.93 169.38 159.79 169.42 C169.26 169.45 178.73 169.49 188.2 169.54 C193.21 169.57 198.23 169.59 203.24 169.6 C207.96 169.62 212.68 169.64 217.4 169.67 C219.13 169.68 220.86 169.68 222.6 169.68 C224.96 169.69 227.32 169.7 229.69 169.72 C230.72 169.72 230.72 169.72 231.77 169.72 C235.35 169.76 237.95 170.06 241 172 C240.14 172.48 240.14 172.48 239.27 172.96 C233.67 176.18 228.59 179.77 223.52 183.77 C218.53 187.66 213.38 191.28 208.19 194.88 C199.88 200.64 191.76 206.61 183.69 212.72 C176.04 218.5 168.18 223.99 160.33 229.51 C155.19 233.13 150.16 236.86 145.15 240.66 C141.34 243.49 137.45 246.21 133.56 248.94 C127.37 253.27 121.37 257.75 115.42 262.41 C112.82 264.42 110.16 266.29 107.45 268.15 C106.28 268.95 106.28 268.95 105.09 269.77 C103.56 270.82 102.02 271.86 100.47 272.89 C99.77 273.37 99.08 273.84 98.36 274.34 C97.74 274.75 97.11 275.17 96.47 275.6 C94.56 277.42 94.21 278.37 94 281 C94.65 283.89 94.65 283.89 95.82 287.09 C96.04 287.71 96.25 288.33 96.47 288.97 C96.94 290.36 97.42 291.75 97.91 293.13 C99.31 297.17 100.68 301.22 102.05 305.27 C102.36 306.18 102.67 307.08 102.98 308.02 C107.48 321.3 111.72 334.67 116 348.02 C117.5 352.69 119 357.36 120.5 362.03 C120.72 362.7 120.94 363.38 121.16 364.08 C124.53 374.54 127.96 384.97 131.43 395.39 C132.21 397.74 132.99 400.08 133.76 402.43 C134.28 403.97 134.79 405.51 135.3 407.05 C135.55 407.8 135.8 408.56 136.06 409.34 C137.55 413.83 139.05 418.32 140.56 422.81 C141.49 425.59 142.41 428.38 143.34 431.17 C143.97 433.09 144.62 435 145.27 436.91 C145.83 438.63 145.83 438.63 146.41 440.38 C146.74 441.37 147.08 442.37 147.42 443.39 C148.01 446.06 147.92 447.46 147 450 C138.48 443.86 129.96 437.72 121.5 431.5 C113.8 425.84 106.05 420.25 98.3 414.66 C93.78 411.4 89.27 408.14 84.76 404.88 C80.98 402.15 77.21 399.43 73.43 396.71 C65.57 391.06 57.76 385.35 50.03 379.52 C42.88 374.13 35.61 368.91 28.34 363.69 C24.27 360.75 20.2 357.81 16.12 354.88 C15.37 354.33 14.61 353.79 13.84 353.22 C13.13 352.71 12.42 352.21 11.7 351.68 C10.77 351.01 10.77 351.01 9.82 350.33 C8.49 349.36 7.19 348.36 5.91 347.33 C4.08 345.79 4.08 345.79 1.73 345.99 C-2.19 347.44 -5.27 349.73 -8.62 352.19 C-9.36 352.72 -10.09 353.25 -10.85 353.79 C-13.24 355.52 -15.62 357.26 -18 359 C-18.82 359.6 -19.63 360.19 -20.47 360.81 C-25.31 364.36 -30.14 367.93 -34.97 371.5 C-44.46 378.51 -54.06 385.39 -63.64 392.29 C-65.93 393.95 -68.23 395.61 -70.53 397.27 C-71.64 398.07 -71.64 398.07 -72.77 398.89 C-74.26 399.96 -75.75 401.04 -77.24 402.12 C-81.02 404.85 -84.79 407.57 -88.57 410.29 C-96.52 416 -104.41 421.78 -112.23 427.68 C-117.66 431.77 -123.17 435.74 -128.72 439.66 C-130.92 441.22 -133.09 442.8 -135.25 444.4 C-136.24 445.13 -137.23 445.87 -138.25 446.62 C-139.12 447.28 -139.99 447.93 -140.89 448.6 C-143 450 -143 450 -145 450 C-144.54 442.8 -142.28 436.34 -139.94 429.56 C-138.57 425.59 -137.23 421.62 -135.89 417.64 C-135.59 416.74 -135.29 415.85 -134.98 414.93 C-130.88 402.72 -126.96 390.44 -123.01 378.18 C-121.08 372.17 -119.15 366.17 -117.22 360.16 C-116.9 359.16 -116.9 359.16 -116.57 358.14 C-113.33 348.1 -110.07 338.06 -106.78 328.02 C-106.57 327.38 -106.36 326.75 -106.15 326.09 C-103.96 319.4 -101.76 312.71 -99.56 306.02 C-99.2 304.92 -98.84 303.83 -98.47 302.69 C-97.8 300.66 -97.13 298.63 -96.46 296.6 C-92.47 286.43 -92.47 286.43 -93 276 C-94.95 274.1 -96.67 272.66 -98.88 271.12 C-99.47 270.69 -100.06 270.26 -100.67 269.82 C-102.43 268.53 -104.22 267.27 -106 266 C-107.73 264.73 -109.46 263.46 -111.19 262.19 C-113.12 260.79 -115.06 259.39 -117 258 C-118.35 257.02 -119.7 256.05 -121.05 255.07 C-124.91 252.28 -128.78 249.49 -132.64 246.71 C-137.17 243.43 -141.71 240.16 -146.24 236.88 C-150.03 234.15 -153.82 231.41 -157.61 228.68 C-168.67 220.7 -179.69 212.66 -190.66 204.55 C-198.37 198.86 -206.09 193.18 -213.91 187.63 C-219.02 184 -224.07 180.3 -229.12 176.58 C-231.71 174.66 -234.31 172.79 -237 171 C-235.34 169.34 -233.35 169.88 -231.13 169.87 C-230.43 169.87 -229.73 169.88 -229.01 169.88 C-227.9 169.88 -227.9 169.88 -226.77 169.88 C-224.27 169.88 -221.77 169.88 -219.27 169.89 C-217.49 169.89 -215.7 169.89 -213.92 169.89 C-209.06 169.89 -204.21 169.89 -199.35 169.9 C-194.28 169.9 -189.21 169.91 -184.14 169.91 C-174.53 169.91 -164.92 169.92 -155.31 169.93 C-144.38 169.94 -133.44 169.94 -122.51 169.95 C-100 169.96 -77.5 169.98 -55 170 C-54.81 169.29 -54.62 168.57 -54.42 167.84 C-53 162.55 -51.52 157.31 -49.8 152.12 C-49.39 150.88 -48.98 149.64 -48.56 148.36 C-48.12 147.03 -47.68 145.7 -47.24 144.37 C-46.77 142.95 -46.3 141.54 -45.84 140.12 C-44.84 137.12 -43.85 134.11 -42.86 131.11 C-40.24 123.2 -37.64 115.29 -35.03 107.38 C-34.77 106.59 -34.51 105.8 -34.24 104.98 C-29.52 90.64 -24.89 76.27 -20.31 61.88 C-14.05 42.19 -7.6 22.58 -1 3 C-0.67 2.01 -0.34 1.02 0 0 Z " fill="#FCD945" transform="translate(638,397)"/>
<path d="M0 0 C422.4 0 844.8 0 1280 0 C1280 0.33 1280 0.66 1280 1 C857.6 1 435.2 1 0 1 C0 0.67 0 0.34 0 0 Z " fill="#000000" transform="translate(0,1067)"/>
</svg>
