<?xml version="1.0" encoding="UTF-8"?>
<!-- Generator: visioncortex VTracer 0.6.3 -->
<svg version="1.1" xmlns="http://www.w3.org/2000/svg" width="1280" height="1280">
<path d="M0 0 C37.91 -0.01 75.81 -0.02 113.72 -0.03 C114.46 -0.03 115.2 -0.03 115.96 -0.03 C195.43 -0.05 274.89 -0.07 354.36 -0.08 C356.12 -0.08 357.89 -0.09 359.65 -0.09 C396.69 -0.09 433.73 -0.1 470.77 -0.1 C489.38 -0.1 507.99 -0.11 526.59 -0.11 C529.4 -0.11 532.21 -0.11 535.01 -0.11 C578.24 -0.12 621.47 -0.12 664.7 -0.14 C665.63 -0.14 666.56 -0.14 667.52 -0.14 C682.51 -0.14 697.5 -0.15 712.49 -0.15 C755.66 -0.16 798.83 -0.18 841.99 -0.18 C842.88 -0.18 843.77 -0.18 844.68 -0.18 C864.16 -0.18 883.64 -0.19 903.12 -0.19 C910.96 -0.19 918.79 -0.19 926.63 -0.19 C927.49 -0.19 928.35 -0.19 929.23 -0.19 C956.88 -0.19 984.54 -0.2 1012.19 -0.21 C1040.04 -0.22 1067.89 -0.23 1095.73 -0.23 C1099.58 -0.23 1103.43 -0.23 1107.27 -0.23 C1108.02 -0.23 1108.78 -0.23 1109.55 -0.23 C1121.51 -0.23 1133.46 -0.23 1145.41 -0.24 C1157.16 -0.25 1168.9 -0.25 1180.64 -0.24 C1186.93 -0.24 1193.22 -0.24 1199.5 -0.25 C1205.21 -0.26 1210.93 -0.26 1216.64 -0.25 C1218.7 -0.25 1220.76 -0.25 1222.82 -0.25 C1225.61 -0.26 1228.39 -0.26 1231.18 -0.25 C1231.98 -0.25 1232.78 -0.26 1233.6 -0.26 C1241.38 -0.21 1248.41 1.78 1255 6 C1257.31 8.62 1257.31 8.62 1259 11 C1259.99 11.66 1260.98 12.32 1262 13 C1262.37 15.47 1262.37 15.47 1262.37 18.67 C1262.38 19.88 1262.39 21.1 1262.39 22.35 C1262.39 23.71 1262.38 25.08 1262.37 26.44 C1262.37 27.89 1262.37 29.33 1262.38 30.77 C1262.39 34.77 1262.38 38.77 1262.37 42.77 C1262.36 47.11 1262.36 51.44 1262.37 55.78 C1262.37 63.39 1262.37 71.01 1262.36 78.62 C1262.34 89.94 1262.34 101.26 1262.34 112.58 C1262.35 131.62 1262.34 150.66 1262.32 169.7 C1262.3 188.56 1262.29 207.42 1262.28 226.28 C1262.28 227.45 1262.28 228.63 1262.28 229.83 C1262.28 235.78 1262.28 241.73 1262.28 247.68 C1262.27 289.84 1262.25 332.01 1262.23 374.17 C1262.2 415.14 1262.18 456.12 1262.16 497.09 C1262.16 498.35 1262.16 499.61 1262.16 500.91 C1262.16 513.59 1262.16 526.26 1262.15 538.94 C1262.14 564.76 1262.14 590.58 1262.13 616.41 C1262.13 617.59 1262.13 618.78 1262.13 620 C1262.1 699.34 1262.05 778.67 1262 858 C1261.34 858 1260.68 858 1260 858 C1259.69 859.08 1259.69 859.08 1259.38 860.19 C1257.03 864.98 1253.85 867.36 1248.93 869.05 C1244.66 870.23 1240.56 870.28 1236.15 870.25 C1235.28 870.25 1234.41 870.26 1233.51 870.26 C1230.57 870.27 1227.64 870.26 1224.7 870.25 C1222.57 870.26 1220.44 870.26 1218.31 870.26 C1212.43 870.27 1206.55 870.27 1200.67 870.26 C1194.28 870.26 1187.89 870.27 1181.5 870.27 C1170.29 870.28 1159.08 870.28 1147.88 870.28 C1135.85 870.27 1123.82 870.28 1111.8 870.28 C1111.04 870.28 1110.28 870.28 1109.5 870.28 C1106.4 870.28 1103.31 870.29 1100.22 870.29 C1068.81 870.3 1037.41 870.31 1006 870.3 C1001.66 870.3 997.32 870.3 992.98 870.3 C992.12 870.3 991.26 870.3 990.37 870.3 C971.27 870.3 952.18 870.3 933.08 870.31 C928.72 870.31 924.36 870.31 920 870.31 C918.25 870.31 916.5 870.31 914.75 870.31 C913.88 870.31 913.02 870.31 912.12 870.31 C910.37 870.31 908.61 870.31 906.86 870.31 C857.08 870.32 807.3 870.32 757.52 870.32 C756.59 870.32 755.67 870.32 754.72 870.32 C744.44 870.32 734.16 870.32 723.88 870.32 C722.95 870.32 722.02 870.32 721.06 870.32 C713.35 870.32 713.35 870.32 709.8 870.32 C650.41 870.31 591.03 870.32 531.64 870.34 C516.68 870.34 501.72 870.35 486.75 870.35 C485.37 870.35 485.37 870.35 483.96 870.35 C455.57 870.36 427.18 870.36 398.79 870.36 C397.9 870.36 397.01 870.36 396.09 870.36 C376.53 870.37 356.97 870.36 337.41 870.36 C330.41 870.36 323.41 870.36 316.41 870.36 C314.67 870.36 312.93 870.36 311.19 870.36 C283.43 870.36 255.67 870.37 227.91 870.38 C199.18 870.39 170.45 870.39 141.72 870.38 C138.63 870.38 135.55 870.38 132.47 870.38 C131.71 870.38 130.95 870.38 130.17 870.38 C118.18 870.37 106.18 870.38 94.19 870.39 C82.4 870.4 70.61 870.39 58.83 870.38 C52.52 870.38 46.21 870.37 39.9 870.39 C34.17 870.4 28.43 870.39 22.7 870.38 C20.63 870.38 18.56 870.38 16.5 870.39 C13.7 870.4 10.9 870.39 8.1 870.37 C6.9 870.39 6.9 870.39 5.68 870.4 C-0.66 870.34 -7.13 869.3 -12.19 865.25 C-12.64 864.65 -13.1 864.05 -13.56 863.44 C-14.04 862.84 -14.51 862.24 -15 861.62 C-16 860 -16 860 -16 858 C-16.66 858 -17.32 858 -18 858 C-18.05 834.23 -18.08 810.45 -18.1 786.68 C-18.11 775.64 -18.13 764.6 -18.15 753.56 C-18.17 743.94 -18.18 734.32 -18.19 724.7 C-18.19 719.61 -18.2 714.51 -18.21 709.42 C-18.23 704.63 -18.23 699.83 -18.23 695.04 C-18.23 693.28 -18.23 691.52 -18.24 689.76 C-18.25 687.35 -18.25 684.95 -18.24 682.55 C-18.25 681.85 -18.25 681.15 -18.26 680.44 C-18.23 675.36 -17.65 671.65 -14 668 C-13.01 668 -12.02 668 -11 668 C-11 667.34 -11 666.68 -11 666 C-8.55 663.55 -7.37 663.01 -3.85 662.91 C-2.91 662.94 -1.97 662.97 -1 663 C-1.09 657.34 -1.2 651.68 -1.32 646.02 C-1.36 644.09 -1.39 642.17 -1.42 640.24 C-1.47 637.48 -1.53 634.71 -1.59 631.95 C-1.6 631.08 -1.61 630.22 -1.62 629.33 C-1.53 624.68 -1.53 624.68 -4 621 C-6.07 620.36 -6.07 620.36 -8 620 C-8 619.34 -8 618.68 -8 618 C-8.6 617.9 -9.2 617.79 -9.81 617.69 C-12.33 616.89 -13.4 616.08 -15 614 C-15 613.01 -15 612.02 -15 611 C-15.99 610.67 -16.98 610.34 -18 610 C-18.05 553.13 -18.1 496.25 -18.13 439.38 C-18.13 438.54 -18.13 437.7 -18.13 436.83 C-18.14 418.55 -18.15 400.27 -18.15 381.99 C-18.16 373.03 -18.16 364.06 -18.16 355.1 C-18.17 354.21 -18.17 353.31 -18.17 352.4 C-18.18 323.46 -18.2 294.53 -18.23 265.59 C-18.26 235.87 -18.28 206.14 -18.28 176.42 C-18.28 172.23 -18.28 168.03 -18.28 163.84 C-18.28 163.01 -18.29 162.19 -18.29 161.34 C-18.29 148.02 -18.3 134.71 -18.32 121.4 C-18.34 108.03 -18.34 94.67 -18.34 81.3 C-18.34 73.35 -18.34 65.39 -18.36 57.44 C-18.37 51.52 -18.37 45.6 -18.36 39.67 C-18.36 37.26 -18.37 34.86 -18.37 32.45 C-18.39 29.2 -18.38 25.95 -18.37 22.69 C-18.38 21.74 -18.38 20.79 -18.39 19.81 C-18.39 18.95 -18.38 18.09 -18.37 17.2 C-18.37 16.46 -18.37 15.71 -18.37 14.94 C-17.9 12.45 -16.87 11.66 -15 10 C-14.5 9.15 -14.01 8.31 -13.5 7.44 C-12 5 -12 5 -9 3 C-6.99 2.66 -6.99 2.66 -4.88 2.5 C-2.96 2.25 -2.96 2.25 -1 2 C-0.67 1.34 -0.34 0.68 0 0 Z " fill="#E81F32" transform="translate(18,204)"/>
<path d="M0 0 C37.91 -0.01 75.81 -0.02 113.72 -0.03 C114.46 -0.03 115.2 -0.03 115.96 -0.03 C195.43 -0.05 274.89 -0.07 354.36 -0.08 C356.12 -0.08 357.89 -0.09 359.65 -0.09 C396.69 -0.09 433.73 -0.1 470.77 -0.1 C489.38 -0.1 507.99 -0.11 526.59 -0.11 C529.4 -0.11 532.21 -0.11 535.01 -0.11 C578.24 -0.12 621.47 -0.12 664.7 -0.14 C665.63 -0.14 666.56 -0.14 667.52 -0.14 C682.51 -0.14 697.5 -0.15 712.49 -0.15 C755.66 -0.16 798.83 -0.18 841.99 -0.18 C842.88 -0.18 843.77 -0.18 844.68 -0.18 C864.16 -0.18 883.64 -0.19 903.12 -0.19 C910.96 -0.19 918.79 -0.19 926.63 -0.19 C927.49 -0.19 928.35 -0.19 929.23 -0.19 C956.88 -0.19 984.54 -0.2 1012.19 -0.21 C1040.04 -0.22 1067.89 -0.23 1095.73 -0.23 C1099.58 -0.23 1103.43 -0.23 1107.27 -0.23 C1108.02 -0.23 1108.78 -0.23 1109.55 -0.23 C1121.51 -0.23 1133.46 -0.23 1145.41 -0.24 C1157.16 -0.25 1168.9 -0.25 1180.64 -0.24 C1186.93 -0.24 1193.22 -0.24 1199.5 -0.25 C1205.21 -0.26 1210.93 -0.26 1216.64 -0.25 C1218.7 -0.25 1220.76 -0.25 1222.82 -0.25 C1225.61 -0.26 1228.39 -0.26 1231.18 -0.25 C1231.98 -0.25 1232.78 -0.26 1233.6 -0.26 C1241.38 -0.21 1248.41 1.78 1255 6 C1257.31 8.62 1257.31 8.62 1259 11 C1259.99 11.66 1260.98 12.32 1262 13 C1262.37 15.47 1262.37 15.47 1262.37 18.67 C1262.38 19.88 1262.39 21.1 1262.39 22.35 C1262.39 23.71 1262.38 25.08 1262.37 26.44 C1262.37 27.89 1262.37 29.33 1262.38 30.77 C1262.39 34.77 1262.38 38.77 1262.37 42.77 C1262.36 47.11 1262.36 51.44 1262.37 55.78 C1262.37 63.39 1262.37 71.01 1262.36 78.62 C1262.34 89.94 1262.34 101.26 1262.34 112.58 C1262.35 131.62 1262.34 150.66 1262.32 169.7 C1262.3 188.56 1262.29 207.42 1262.28 226.28 C1262.28 227.45 1262.28 228.63 1262.28 229.83 C1262.28 235.78 1262.28 241.73 1262.28 247.68 C1262.27 289.84 1262.25 332.01 1262.23 374.17 C1262.2 415.14 1262.18 456.12 1262.16 497.09 C1262.16 498.35 1262.16 499.61 1262.16 500.91 C1262.16 513.59 1262.16 526.26 1262.15 538.94 C1262.14 564.76 1262.14 590.58 1262.13 616.41 C1262.13 617.59 1262.13 618.78 1262.13 620 C1262.1 699.34 1262.05 778.67 1262 858 C1261.34 858 1260.68 858 1260 858 C1259.69 859.08 1259.69 859.08 1259.38 860.19 C1257.03 864.98 1253.85 867.36 1248.93 869.05 C1244.66 870.23 1240.56 870.28 1236.15 870.25 C1235.28 870.25 1234.41 870.26 1233.51 870.26 C1230.57 870.27 1227.64 870.26 1224.7 870.25 C1222.57 870.26 1220.44 870.26 1218.31 870.26 C1212.43 870.27 1206.55 870.27 1200.67 870.26 C1194.28 870.26 1187.89 870.27 1181.5 870.27 C1170.29 870.28 1159.08 870.28 1147.88 870.28 C1135.85 870.27 1123.82 870.28 1111.8 870.28 C1111.04 870.28 1110.28 870.28 1109.5 870.28 C1106.4 870.28 1103.31 870.29 1100.22 870.29 C1068.81 870.3 1037.41 870.31 1006 870.3 C1001.66 870.3 997.32 870.3 992.98 870.3 C992.12 870.3 991.26 870.3 990.37 870.3 C971.27 870.3 952.18 870.3 933.08 870.31 C928.72 870.31 924.36 870.31 920 870.31 C918.25 870.31 916.5 870.31 914.75 870.31 C913.88 870.31 913.02 870.31 912.12 870.31 C910.37 870.31 908.61 870.31 906.86 870.31 C857.08 870.32 807.3 870.32 757.52 870.32 C756.59 870.32 755.67 870.32 754.72 870.32 C744.44 870.32 734.16 870.32 723.88 870.32 C722.95 870.32 722.02 870.32 721.06 870.32 C713.35 870.32 713.35 870.32 709.8 870.32 C650.41 870.31 591.03 870.32 531.64 870.34 C516.68 870.34 501.72 870.35 486.75 870.35 C485.37 870.35 485.37 870.35 483.96 870.35 C455.57 870.36 427.18 870.36 398.79 870.36 C397.9 870.36 397.01 870.36 396.09 870.36 C376.53 870.37 356.97 870.36 337.41 870.36 C330.41 870.36 323.41 870.36 316.41 870.36 C314.67 870.36 312.93 870.36 311.19 870.36 C283.43 870.36 255.67 870.37 227.91 870.38 C199.18 870.39 170.45 870.39 141.72 870.38 C138.63 870.38 135.55 870.38 132.47 870.38 C131.71 870.38 130.95 870.38 130.17 870.38 C118.18 870.37 106.18 870.38 94.19 870.39 C82.4 870.4 70.61 870.39 58.83 870.38 C52.52 870.38 46.21 870.37 39.9 870.39 C34.17 870.4 28.43 870.39 22.7 870.38 C20.63 870.38 18.56 870.38 16.5 870.39 C13.7 870.4 10.9 870.39 8.1 870.37 C6.9 870.39 6.9 870.39 5.68 870.4 C-0.66 870.34 -7.13 869.3 -12.19 865.25 C-12.64 864.65 -13.1 864.05 -13.56 863.44 C-14.04 862.84 -14.51 862.24 -15 861.62 C-16 860 -16 860 -16 858 C-16.66 858 -17.32 858 -18 858 C-18.05 834.23 -18.08 810.45 -18.1 786.68 C-18.11 775.64 -18.13 764.6 -18.15 753.56 C-18.17 743.94 -18.18 734.32 -18.19 724.7 C-18.19 719.61 -18.2 714.51 -18.21 709.42 C-18.23 704.63 -18.23 699.83 -18.23 695.04 C-18.23 693.28 -18.23 691.52 -18.24 689.76 C-18.25 687.35 -18.25 684.95 -18.24 682.55 C-18.25 681.85 -18.25 681.15 -18.26 680.44 C-18.23 675.36 -17.65 671.65 -14 668 C-13.01 668 -12.02 668 -11 668 C-11 667.34 -11 666.68 -11 666 C-8.53 663.53 -7.29 663.02 -3.75 662.81 C-2.84 662.87 -1.93 662.94 -1 663 C-0.67 662.01 -0.34 661.02 0 660 C0.33 660.66 0.66 661.32 1 662 C2.88 662.45 4.78 662.84 6.69 663.19 C12.88 664.64 15.66 666.68 19 672 C19.6 672.87 20.2 673.73 20.81 674.62 C43.38 719.77 23.65 775.53 24 826 C418.68 826.33 813.36 826.66 1220 827 C1219.86 697.99 1219.71 568.98 1219.56 436.06 C1219.5 374.84 1219.5 374.84 1219.43 312.38 C1219.39 275.96 1219.39 275.96 1219.34 239.55 C1219.32 222.18 1219.31 204.82 1219.29 187.45 C1219.27 169.77 1219.25 152.09 1219.23 134.4 C1219.21 123.87 1219.2 113.34 1219.19 102.81 C1219.19 95.88 1219.18 88.94 1219.17 82 C1219.16 78.04 1219.16 74.08 1219.16 70.12 C1219.16 66.51 1219.15 62.91 1219.14 59.31 C1219.14 57.39 1219.14 55.46 1219.14 53.54 C1219.14 52.42 1219.13 51.3 1219.13 50.14 C1219.13 48.67 1219.13 48.67 1219.13 47.18 C1219.24 45.02 1219.24 45.02 1218 44 C1215.4 43.9 1212.82 43.87 1210.21 43.88 C1209.38 43.87 1208.55 43.87 1207.69 43.87 C1204.87 43.87 1202.04 43.87 1199.21 43.88 C1197.18 43.88 1195.14 43.88 1193.1 43.87 C1187.44 43.87 1181.78 43.87 1176.13 43.88 C1169.99 43.88 1163.86 43.88 1157.72 43.88 C1146.95 43.88 1136.19 43.88 1125.42 43.88 C1113.86 43.89 1102.3 43.89 1090.74 43.89 C1090.01 43.89 1089.28 43.89 1088.53 43.89 C1084.81 43.89 1081.1 43.89 1077.38 43.89 C1050.45 43.88 1023.52 43.89 996.59 43.89 C969.91 43.9 943.23 43.9 916.55 43.91 C915.31 43.91 915.31 43.91 914.04 43.91 C906.48 43.91 898.92 43.91 891.36 43.91 C872.56 43.91 853.76 43.91 834.96 43.91 C834.11 43.91 833.25 43.91 832.37 43.91 C790.7 43.91 749.03 43.92 707.37 43.92 C692.9 43.93 678.44 43.93 663.97 43.93 C663.08 43.93 662.18 43.93 661.26 43.93 C619.57 43.94 577.89 43.94 536.21 43.94 C533.5 43.95 530.8 43.95 528.09 43.95 C510.17 43.95 492.24 43.95 474.31 43.95 C438.64 43.95 402.96 43.95 367.29 43.96 C365.59 43.96 363.89 43.96 362.19 43.96 C285.69 43.96 209.19 43.97 132.68 43.98 C131.61 43.98 131.61 43.98 130.51 43.98 C94.67 43.99 58.84 43.99 23 44 C23 45.18 23 46.36 23 47.57 C23.04 99.46 23.07 151.36 23.08 203.26 C23.08 204.04 23.09 204.83 23.09 205.64 C23.09 222.71 23.1 239.78 23.1 256.85 C23.1 265.22 23.11 273.59 23.11 281.96 C23.11 282.8 23.11 283.63 23.11 284.49 C23.12 311.5 23.13 338.5 23.15 365.51 C23.17 393.26 23.18 421.02 23.19 448.77 C23.19 452.69 23.19 456.6 23.19 460.52 C23.19 461.29 23.19 462.07 23.19 462.86 C23.19 475.28 23.2 487.7 23.21 500.12 C23.23 512.61 23.23 525.09 23.23 537.57 C23.23 544.34 23.23 551.11 23.24 557.87 C23.25 564.06 23.25 570.25 23.24 576.44 C23.24 578.69 23.24 580.93 23.25 583.17 C23.26 586.21 23.25 589.26 23.25 592.3 C23.25 593.18 23.26 594.05 23.26 594.95 C23.23 601.58 22.91 608.7 18.19 613.81 C17.47 614.63 17.47 614.63 16.73 615.46 C12.64 619.1 8.88 620.49 3.5 621.31 C1.84 621.59 1.84 621.59 0.16 621.86 C-3.17 622.01 -5.05 621.47 -8 620 C-8 619.34 -8 618.68 -8 618 C-8.6 617.9 -9.2 617.79 -9.81 617.69 C-12.33 616.89 -13.4 616.08 -15 614 C-15 613.01 -15 612.02 -15 611 C-15.99 610.67 -16.98 610.34 -18 610 C-18.05 553.13 -18.1 496.25 -18.13 439.38 C-18.13 438.54 -18.13 437.7 -18.13 436.83 C-18.14 418.55 -18.15 400.27 -18.15 381.99 C-18.16 373.03 -18.16 364.06 -18.16 355.1 C-18.17 354.21 -18.17 353.31 -18.17 352.4 C-18.18 323.46 -18.2 294.53 -18.23 265.59 C-18.26 235.87 -18.28 206.14 -18.28 176.42 C-18.28 172.23 -18.28 168.03 -18.28 163.84 C-18.28 163.01 -18.29 162.19 -18.29 161.34 C-18.29 148.02 -18.3 134.71 -18.32 121.4 C-18.34 108.03 -18.34 94.67 -18.34 81.3 C-18.34 73.35 -18.34 65.39 -18.36 57.44 C-18.37 51.52 -18.37 45.6 -18.36 39.67 C-18.36 37.26 -18.37 34.86 -18.37 32.45 C-18.39 29.2 -18.38 25.95 -18.37 22.69 C-18.38 21.74 -18.38 20.79 -18.39 19.81 C-18.39 18.95 -18.38 18.09 -18.37 17.2 C-18.37 16.46 -18.37 15.71 -18.37 14.94 C-17.9 12.45 -16.87 11.66 -15 10 C-14.5 9.15 -14.01 8.31 -13.5 7.44 C-12 5 -12 5 -9 3 C-6.99 2.66 -6.99 2.66 -4.88 2.5 C-2.96 2.25 -2.96 2.25 -1 2 C-0.67 1.34 -0.34 0.68 0 0 Z " fill="#000000" transform="translate(18,204)"/>
<path d="M0 0 C8.45 8.53 12.17 24.94 16.33 36.03 C17.02 37.86 17.71 39.69 18.4 41.52 C19.49 44.4 20.57 47.27 21.66 50.15 C25.78 61.06 29.96 71.96 34.14 82.85 C38.53 94.27 42.9 105.7 47.2 117.16 C47.52 118.03 47.85 118.91 48.19 119.8 C49.73 123.9 51.26 127.99 52.78 132.09 C53.32 133.53 53.85 134.96 54.39 136.4 C54.63 137.05 54.87 137.7 55.11 138.37 C56.15 141.12 56.91 142.93 59.02 145.03 C63 146.13 67 146.28 71.11 146.48 C71.81 146.52 72.51 146.56 73.23 146.59 C75.53 146.71 77.84 146.82 80.15 146.94 C81.79 147.02 83.43 147.1 85.07 147.19 C89.4 147.41 93.74 147.63 98.07 147.84 C104.88 148.18 111.69 148.53 118.5 148.87 C120.19 148.96 121.87 149.04 123.56 149.13 C136.96 149.81 150.36 150.56 163.75 151.38 C173.18 151.96 182.6 152.36 192.04 152.62 C200.82 152.86 210.09 153.12 217.02 159.03 C222.31 164.78 224.34 169.76 224.42 177.47 C222.57 189.37 209.47 197.44 200.54 204.3 C196.19 207.65 192 211.18 187.8 214.71 C184.52 217.45 181.19 220.12 177.84 222.77 C174.22 225.67 170.62 228.6 167.02 231.53 C159.97 237.27 152.92 243 145.75 248.58 C139.37 253.56 133.09 258.62 126.93 263.89 C110.84 277.6 110.84 277.6 105.55 280.28 C103.82 281.87 103.82 281.87 104 283.84 C104.69 289.54 105.88 294.93 107.43 300.45 C107.68 301.35 107.92 302.25 108.18 303.17 C108.71 305.13 109.25 307.08 109.79 309.03 C110.96 313.25 112.12 317.48 113.28 321.71 C113.89 323.97 114.51 326.22 115.13 328.48 C119.41 344.08 123.58 359.71 127.75 375.34 C128.36 377.66 128.98 379.98 129.6 382.3 C129.9 383.41 130.2 384.53 130.5 385.67 C132.22 392.09 133.96 398.5 135.74 404.89 C136.13 406.3 136.52 407.7 136.9 409.11 C137.57 411.52 138.25 413.93 138.94 416.34 C141.06 424.09 142.69 431.73 139.39 439.35 C136.54 444.36 132.36 447.83 127.02 450.03 C124.47 450.34 124.47 450.34 121.7 450.35 C120.8 450.36 119.9 450.38 118.97 450.4 C112.69 449.62 107.65 446.33 102.45 442.91 C101.23 442.1 100 441.3 98.77 440.5 C98.15 440.09 97.52 439.68 96.88 439.26 C95.08 438.08 93.27 436.92 91.45 435.76 C84.39 431.27 77.48 426.63 70.66 421.78 C68.08 419.91 68.08 419.91 65.02 419.03 C65.02 418.37 65.02 417.71 65.02 417.03 C64.29 416.77 63.57 416.5 62.83 416.22 C53.64 412.34 45.21 405.88 36.97 400.32 C35.33 399.24 33.65 398.25 31.95 397.28 C31.31 396.87 30.68 396.46 30.02 396.03 C30.02 395.37 30.02 394.71 30.02 394.03 C29.13 393.79 28.24 393.54 27.33 393.28 C23.85 391.97 21.86 390.39 19.02 388.03 C17.27 387.02 15.52 386 13.75 385.02 C11.08 383.5 8.57 381.75 6.02 380.03 C3.23 378.25 0.43 376.48 -2.37 374.72 C-4.43 373.4 -6.35 372.01 -8.3 370.53 C-11.89 368.53 -13.03 368.92 -16.98 370.03 C-20.23 371.79 -23.25 373.84 -26.3 375.91 C-28.09 377.1 -29.88 378.29 -31.67 379.48 C-32.56 380.08 -33.46 380.68 -34.38 381.3 C-38.16 383.82 -41.98 386.27 -45.8 388.72 C-51.75 392.56 -57.65 396.47 -63.54 400.41 C-69.35 404.29 -75.22 408.07 -81.11 411.84 C-90.01 417.54 -98.89 423.28 -107.67 429.16 C-141.28 451.65 -141.28 451.65 -152.98 450.03 C-158.57 447.72 -163.99 444.41 -166.98 439.03 C-169.29 432.33 -168.88 427.22 -167.02 420.48 C-166.79 419.58 -166.56 418.68 -166.32 417.75 C-165.56 414.84 -164.78 411.94 -163.98 409.03 C-163.46 407.1 -162.95 405.17 -162.43 403.23 C-161.06 398.17 -159.66 393.11 -158.25 388.05 C-156.7 382.48 -155.16 376.9 -153.62 371.32 C-153.31 370.2 -153.01 369.08 -152.69 367.92 C-149.27 355.5 -146.01 343.04 -142.77 330.57 C-142.34 328.91 -141.91 327.24 -141.48 325.57 C-141.27 324.77 -141.06 323.96 -140.84 323.14 C-139.43 317.71 -137.98 312.31 -136.49 306.91 C-136.1 305.49 -135.72 304.07 -135.33 302.66 C-134.62 300.07 -133.91 297.49 -133.18 294.91 C-132.87 293.79 -132.57 292.67 -132.25 291.51 C-131.98 290.54 -131.71 289.57 -131.43 288.58 C-130.97 285.93 -131 284.51 -131.98 282.03 C-134.17 279.66 -134.17 279.66 -136.86 277.41 C-138.18 276.25 -138.18 276.25 -139.54 275.06 C-142.01 272.95 -142.01 272.95 -144.98 271.03 C-144.98 270.37 -144.98 269.71 -144.98 269.03 C-146.63 268.37 -148.28 267.71 -149.98 267.03 C-149.98 266.37 -149.98 265.71 -149.98 265.03 C-150.64 264.85 -151.3 264.66 -151.98 264.47 C-156.31 262.4 -159.46 259.24 -162.98 256.03 C-166.26 253.23 -166.26 253.23 -169.98 251.16 C-172.5 249.74 -173.85 247.74 -175.61 245.5 C-177.7 243.26 -180.19 242.2 -182.98 241.03 C-182.98 240.37 -182.98 239.71 -182.98 239.03 C-183.85 238.65 -183.85 238.65 -184.73 238.26 C-187.96 236.51 -190.39 234.07 -193.08 231.59 C-195 229.83 -195 229.83 -197.98 229.03 C-197.98 228.37 -197.98 227.71 -197.98 227.03 C-198.58 226.77 -199.18 226.5 -199.8 226.22 C-201.99 225.03 -203.23 223.79 -204.98 222.03 C-205.87 221.52 -206.76 221 -207.67 220.47 C-208.43 220 -209.2 219.52 -209.98 219.03 C-209.98 218.37 -209.98 217.71 -209.98 217.03 C-210.84 216.64 -210.84 216.64 -211.72 216.23 C-218.09 212.86 -223.52 207.62 -228.88 202.86 C-231.22 200.83 -233.62 198.9 -236.05 196.97 C-236.88 196.3 -237.72 195.63 -238.58 194.95 C-240.07 193.76 -241.57 192.58 -243.07 191.41 C-247.75 187.63 -250.55 184.49 -251.33 178.27 C-251.63 172.25 -251.25 167.68 -247.57 162.78 C-236.69 150.8 -219.75 152.66 -204.64 151.92 C-202.13 151.8 -199.62 151.68 -197.11 151.56 C-194.5 151.43 -191.89 151.3 -189.28 151.17 C-183.13 150.87 -176.97 150.57 -170.82 150.28 C-161.83 149.84 -152.84 149.4 -143.85 148.96 C-137.39 148.64 -130.93 148.32 -124.47 148.01 C-107.21 147.29 -107.21 147.29 -89.98 146.03 C-89.08 145.95 -88.17 145.86 -87.23 145.78 C-84.85 145.25 -84.85 145.25 -83.73 143.18 C-83.43 142.36 -83.14 141.55 -82.83 140.71 C-82.48 139.78 -82.14 138.85 -81.78 137.89 C-81.42 136.86 -81.05 135.84 -80.68 134.78 C-80.29 133.72 -79.9 132.66 -79.49 131.56 C-78.2 128.06 -76.94 124.55 -75.67 121.03 C-74.33 117.38 -72.98 113.73 -71.63 110.07 C-70.72 107.61 -69.82 105.14 -68.91 102.67 C-64.94 91.86 -60.78 81.13 -56.55 70.41 C-52.71 60.69 -48.92 50.96 -45.32 41.15 C-44.87 39.95 -44.87 39.95 -44.42 38.72 C-43.04 34.97 -41.67 31.21 -40.32 27.44 C-31.46 3.01 -31.46 3.01 -21.98 -1.97 C-14.73 -5 -6.52 -4.7 0 0 Z " fill="#000000" transform="translate(652.9833984375,415.965087890625)"/>
<path d="M0 0 C2.6 1.3 2.66 2.25 3.66 4.94 C3.97 5.78 4.28 6.61 4.6 7.47 C4.93 8.38 5.27 9.29 5.61 10.23 C6.33 12.16 7.05 14.1 7.78 16.03 C8.14 17.03 8.51 18.02 8.89 19.05 C10.58 23.56 12.33 28.06 14.08 32.55 C14.77 34.32 15.45 36.1 16.14 37.87 C16.49 38.76 16.83 39.65 17.19 40.57 C22.6 54.54 28 68.52 33.28 82.54 C33.8 83.92 34.32 85.3 34.84 86.69 C35.56 88.57 36.26 90.46 36.97 92.35 C37.37 93.4 37.76 94.45 38.17 95.53 C39 98 39 98 39 100 C39.66 100 40.32 100 41 100 C42.62 101.38 42.62 101.38 44 103 C44 103.66 44 104.32 44 105 C49.85 107.41 55.06 109.22 61.42 109.53 C62.73 109.6 64.04 109.66 65.38 109.73 C66.09 109.77 66.8 109.8 67.53 109.83 C69.81 109.94 72.09 110.06 74.37 110.18 C79.91 110.46 85.46 110.73 91 111 C99.85 111.43 108.7 111.86 117.54 112.31 C121.38 112.5 125.22 112.68 129.06 112.86 C131.47 112.98 133.89 113.1 136.31 113.22 C137.4 113.27 138.48 113.32 139.6 113.37 C147.17 113.75 154.54 114.72 162 116 C158.43 119.81 154.57 122.96 150.43 126.14 C138.86 135.01 127.63 144.36 116.38 153.62 C112.42 156.87 108.41 160.04 104.38 163.19 C98.83 167.53 93.33 171.93 87.88 176.38 C87.15 176.96 86.43 177.54 85.69 178.14 C79.78 182.98 74.73 187.6 73.66 195.52 C73.51 204.73 75.73 213.03 78.16 221.8 C78.6 223.42 79.03 225.03 79.47 226.64 C80.6 230.87 81.76 235.09 82.92 239.31 C84.08 243.53 85.22 247.76 86.36 251.99 C91.12 269.59 91.12 269.59 96.02 287.15 C96.31 288.18 96.6 289.21 96.9 290.27 C97.42 292.11 97.95 293.94 98.48 295.77 C99.56 299.59 100.2 302.2 99 306 C98.61 305.58 98.23 305.15 97.83 304.71 C92.2 299.43 84.73 295.74 78 292 C78 291.34 78 290.68 78 290 C77.44 289.9 76.88 289.79 76.3 289.69 C73.53 288.86 71.54 287.59 69.12 286 C68.16 285.37 67.2 284.75 66.21 284.1 C65.15 283.41 64.09 282.71 63 282 C61.81 281.24 60.61 280.47 59.41 279.71 C49.14 273.16 49.14 273.16 44.81 270 C42.12 267.88 42.12 267.88 39 267 C39 266.34 39 265.68 39 265 C38.28 264.73 37.56 264.47 36.82 264.2 C33.96 262.98 31.54 261.56 28.94 259.88 C27.5 258.95 27.5 258.95 26.04 258.01 C23.97 256.64 21.91 255.25 19.86 253.83 C12.07 248.47 6.22 245.11 -3.41 246.41 C-12.16 248.4 -19.47 254.18 -26.77 259.14 C-31.31 262.22 -35.9 265.21 -40.5 268.19 C-42.21 269.3 -43.92 270.4 -45.62 271.51 C-46.5 272.08 -47.38 272.65 -48.28 273.23 C-53.99 276.94 -59.69 280.66 -65.39 284.39 C-70.18 287.51 -74.97 290.63 -79.76 293.73 C-80.68 294.33 -81.59 294.92 -82.53 295.53 C-84.26 296.65 -85.98 297.76 -87.71 298.88 C-88.86 299.63 -88.86 299.63 -90.04 300.39 C-90.71 300.82 -91.38 301.26 -92.07 301.7 C-94.1 303.07 -96.06 304.52 -98 306 C-99.45 302.13 -98.53 299.38 -97.44 295.48 C-97.25 294.82 -97.07 294.16 -96.88 293.47 C-96.26 291.23 -95.63 288.99 -95 286.75 C-94.32 284.31 -93.65 281.88 -92.98 279.44 C-92.49 277.65 -91.99 275.86 -91.5 274.07 C-87.89 261.03 -84.43 247.95 -80.94 234.88 C-79.64 230 -78.33 225.12 -77.03 220.24 C-76.74 219.15 -76.44 218.06 -76.14 216.93 C-75.88 215.93 -75.61 214.93 -75.33 213.89 C-75.1 213.02 -74.86 212.14 -74.62 211.24 C-74.13 209.48 -73.58 207.73 -73 206 C-72.52 199.09 -72.11 193 -76 187 C-76 186.34 -76 185.68 -76 185 C-76.59 184.75 -77.17 184.49 -77.77 184.23 C-80.24 182.87 -81.72 181.38 -83.62 179.31 C-87.42 175.38 -91.51 172.41 -96.09 169.45 C-96.72 168.97 -97.35 168.49 -98 168 C-98 167.34 -98 166.68 -98 166 C-98.77 165.66 -98.77 165.66 -99.56 165.31 C-103.91 162.97 -107.81 160.23 -111.25 156.69 C-114.68 153.34 -118.46 150.71 -122.38 147.96 C-124.82 146.13 -126.86 144.17 -129 142 C-130.36 141.2 -130.36 141.2 -131.75 140.38 C-132.49 139.92 -133.24 139.47 -134 139 C-134 138.34 -134 137.68 -134 137 C-134.6 136.71 -135.2 136.42 -135.81 136.12 C-138 135 -138 135 -141 133 C-141 132.34 -141 131.68 -141 131 C-142.06 130.64 -142.06 130.64 -143.15 130.28 C-146.48 128.78 -148.84 126.86 -151.62 124.5 C-154.37 122.18 -157.01 120 -160 118 C-160 117.01 -160 116.02 -160 115 C-153.64 114.63 -147.28 114.26 -140.91 113.89 C-137.42 113.69 -133.94 113.48 -130.45 113.28 C-117.83 112.54 -105.21 111.85 -92.58 111.24 C-88.85 111.05 -85.12 110.87 -81.38 110.68 C-78.97 110.56 -76.56 110.45 -74.15 110.34 C-70.76 110.18 -67.37 110.02 -63.98 109.84 C-62.99 109.8 -61.99 109.76 -60.96 109.72 C-54.41 109.37 -48.39 108.63 -43.03 104.47 C-39.56 100.13 -37.35 95.89 -35.44 90.69 C-35.11 89.84 -34.79 88.99 -34.45 88.12 C-33.71 86.19 -32.97 84.24 -32.24 82.3 C-30.87 78.66 -29.48 75.03 -28.09 71.39 C-26.46 67.15 -24.84 62.91 -23.22 58.66 C-19.29 48.37 -15.34 38.08 -11.36 27.81 C-10.75 26.25 -10.15 24.68 -9.54 23.12 C-6.53 15.33 -3.49 7.59 0 0 Z " fill="#FCE006" transform="translate(639,493)"/>
<path d="" fill="#000000" transform="translate(0,0)"/>
<path d="" fill="#FDFDFD" transform="translate(0,0)"/>
<path d="" fill="#000000" transform="translate(0,0)"/>
</svg>
