<?xml version="1.0" encoding="UTF-8"?>
<!-- Generator: visioncortex VTracer 0.6.3 -->
<svg version="1.1" xmlns="http://www.w3.org/2000/svg" width="1280" height="960">
<path d="M0 0 C0.99 0.06 1.98 0.12 3 0.19 C12.12 1.46 20.59 8.92 26 16 C26.75 18.78 26.75 18.78 27 21 C27.66 21 28.32 21 29 21 C29.27 21.55 29.54 22.1 29.82 22.66 C36.47 36.1 36.47 36.1 43.52 49.32 C48.62 58.54 53.47 67.87 58.14 77.31 C60.43 81.91 62.83 86.43 65.32 90.93 C67.51 94.93 69.63 98.96 71.75 103 C72.18 103.81 72.6 104.62 73.04 105.45 C75.24 109.64 77.43 113.83 79.62 118.03 C84.93 128.21 84.93 128.21 90.62 138.19 C93.66 143.29 96.32 148.53 98.94 153.85 C101.88 159.81 104.98 165.66 108.14 171.5 C110.81 176.52 113.32 181.61 115.82 186.72 C119.13 193.44 122.53 200.06 126.25 206.56 C131.62 215.96 136.55 225.57 141.53 235.17 C143.34 238.65 145.16 242.11 147 245.57 C150.6 252.37 154.16 259.19 157.62 266.06 C157.97 266.74 158.31 267.41 158.67 268.1 C161 272.76 161 272.76 161 275 C162.32 275 163.64 275 165 275 C165.86 273.25 165.86 273.25 166.74 271.46 C168.74 267.46 170.9 263.57 173.12 259.69 C177.05 252.77 180.79 245.77 184.47 238.73 C187.11 233.69 189.79 228.68 192.53 223.7 C194.27 220.5 195.98 217.28 197.69 214.06 C202.3 205.38 207.06 196.78 211.8 188.17 C216.15 180.28 220.41 172.35 224.62 164.39 C230.99 152.34 237.51 140.39 244.04 128.43 C244.52 127.54 245.01 126.64 245.51 125.72 C246.52 123.88 247.53 122.04 248.54 120.2 C251.69 114.43 254.78 108.64 257.81 102.81 C262.07 94.68 266.51 86.68 271.04 78.7 C275.64 70.56 279.98 62.26 284.32 53.98 C287.01 48.87 289.72 43.79 292.51 38.74 C293.67 36.61 294.81 34.47 295.93 32.32 C303.18 18.47 310.18 5.21 326 0 C334.16 -2.04 342.4 -1.71 350 2 C358.55 7.21 367.87 13.91 370.59 23.96 C371.34 27.68 371.28 31.37 371.26 35.15 C371.26 36.05 371.27 36.95 371.27 37.87 C371.28 40.87 371.28 43.88 371.27 46.88 C371.28 49.04 371.28 51.19 371.29 53.35 C371.3 59.2 371.3 65.05 371.3 70.9 C371.3 75.79 371.31 80.68 371.31 85.56 C371.32 97.09 371.32 108.61 371.32 120.14 C371.31 132.03 371.32 143.92 371.34 155.81 C371.36 166.02 371.37 176.23 371.36 186.44 C371.36 192.54 371.36 198.63 371.38 204.73 C371.39 210.46 371.39 216.2 371.38 221.93 C371.37 224.03 371.38 226.13 371.38 228.24 C371.39 231.11 371.39 233.98 371.37 236.85 C371.38 237.68 371.39 238.51 371.4 239.37 C371.3 249.81 366.18 255.9 358.98 262.99 C355.18 266.5 352.16 268.91 347 270 C346.11 270.2 345.23 270.41 344.31 270.62 C335.13 272.51 326.22 271.96 318 267 C308.03 260.1 301.94 252.84 299 241 C298.8 238.34 298.69 235.79 298.68 233.14 C298.67 232.38 298.66 231.63 298.65 230.86 C298.62 228.4 298.6 225.93 298.59 223.47 C298.57 221.76 298.55 220.04 298.53 218.32 C298.48 213.82 298.44 209.32 298.4 204.83 C298.36 200.23 298.31 195.63 298.26 191.03 C298.16 182.02 298.08 173.01 298 164 C296.71 166.24 295.43 168.48 294.15 170.72 C293.79 171.35 293.42 171.98 293.05 172.63 C290.49 177.1 288.07 181.61 285.81 186.25 C285.48 186.93 285.14 187.6 284.8 188.3 C283.86 190.2 282.93 192.1 282 194 C278.53 201.06 274.89 208.03 271.22 214.99 C263.58 229.48 255.95 243.98 248.68 258.67 C245.6 264.86 242.31 270.93 239 277 C234.52 285.27 230.17 293.59 226 302.02 C223.74 306.56 221.4 311.04 219 315.5 C214.35 324.14 209.96 332.91 205.67 341.74 C204.48 344.18 203.25 346.59 202 349 C201.44 350.1 200.88 351.2 200.3 352.33 C194.34 363.66 186.75 374.03 174 378 C170.54 378.56 167.19 378.67 163.69 378.62 C162.77 378.61 161.84 378.6 160.9 378.59 C151.71 378.27 145.15 376.07 138.49 369.54 C133.32 363.58 129.49 357.04 126 350 C125.23 348.48 125.23 348.48 124.44 346.94 C123.96 345.97 123.49 345 123 344 C122.21 342.42 121.42 340.83 120.62 339.25 C79.19 256.37 79.19 256.37 78.2 254.41 C77.52 253.04 76.84 251.67 76.15 250.3 C74.44 246.88 72.72 243.45 71.02 240.01 C70.37 238.7 69.72 237.38 69.06 236.06 C68.74 235.41 68.42 234.76 68.08 234.09 C66.3 230.52 64.46 226.98 62.57 223.46 C62.16 222.71 61.75 221.95 61.33 221.17 C60.55 219.73 59.76 218.28 58.97 216.85 C57.22 213.62 55.8 210.62 54.87 207.07 C54.58 206.05 54.29 205.04 54 204 C53.34 203.67 52.68 203.34 52 203 C50.6 200.35 49.29 197.7 48 195 C46.82 192.62 45.63 190.25 44.44 187.88 C43.29 185.58 42.15 183.29 41 181 C40.27 179.58 40.27 179.58 39.54 178.13 C37.58 174.14 35.81 170.06 34 166 C33.67 225.4 33.34 284.8 33 346 C32.67 346 32.34 346 32 346 C31.85 346.85 31.71 347.69 31.55 348.56 C30.05 356.15 28.29 361.35 23 367 C22.46 367.63 21.92 368.25 21.37 368.9 C15.95 374.87 9.76 378.06 1.66 378.57 C-0.21 378.59 -2.07 378.59 -3.94 378.56 C-4.91 378.55 -5.88 378.54 -6.89 378.53 C-17.03 378.21 -22.56 375.51 -29.88 368.56 C-39.42 358.37 -41.46 349.5 -41.39 335.8 C-41.39 334.49 -41.4 333.18 -41.4 331.82 C-41.42 328.2 -41.41 324.58 -41.41 320.96 C-41.4 317.05 -41.41 313.14 -41.42 309.23 C-41.44 301.57 -41.44 293.91 -41.44 286.26 C-41.43 280.03 -41.44 273.81 -41.44 267.59 C-41.44 266.7 -41.44 265.81 -41.44 264.9 C-41.44 263.1 -41.45 261.29 -41.45 259.49 C-41.46 242.61 -41.46 225.72 -41.44 208.84 C-41.43 193.4 -41.45 177.96 -41.47 162.52 C-41.5 146.66 -41.51 130.8 -41.5 114.93 C-41.49 106.03 -41.5 97.13 -41.51 88.23 C-41.53 80.65 -41.53 73.08 -41.51 65.5 C-41.5 61.64 -41.5 57.77 -41.52 53.91 C-41.53 49.71 -41.52 45.52 -41.5 41.33 C-41.51 40.11 -41.52 38.9 -41.53 37.65 C-41.43 26.21 -38.04 17.24 -30 9 C-22.63 3.03 -9.63 -4.81 0 0 Z " fill="#1551D0" transform="translate(109,290)"/>
<path d="M0 0 C9.22 6.66 13.59 15.27 18.31 25.31 C19.02 26.67 19.72 28.02 20.44 29.38 C23.17 34.83 25.17 40.61 27.31 46.31 C29.33 51.59 31.32 56.5 34.31 61.31 C35.69 64.36 36.96 67.42 38.18 70.53 C39.98 75.12 41.89 79.61 44 84.06 C46.79 90.03 49.29 96.08 51.75 102.19 C55.33 111.05 59.2 119.69 63.31 128.31 C65.42 132.89 67.4 137.5 69.25 142.19 C70.97 146.54 72.86 150.79 74.82 155.05 C76.72 159.21 78.58 163.38 80.44 167.56 C80.77 168.32 81.11 169.08 81.46 169.86 C84.49 176.68 87.43 183.53 90.15 190.49 C91.4 193.52 92.72 196.51 94.06 199.5 C95.59 202.93 97.09 206.37 98.59 209.8 C98.89 210.48 99.18 211.16 99.49 211.85 C100.72 214.67 101.94 217.49 103.17 220.31 C106.82 228.67 110.5 237.02 114.31 245.31 C114.97 245.31 115.63 245.31 116.31 245.31 C116.77 244.21 117.24 243.1 117.71 241.96 C121.95 231.85 126.27 221.79 130.66 211.74 C133.18 205.96 135.63 200.16 138 194.31 C140.13 189.07 142.38 183.92 144.81 178.81 C149.72 168.48 153.99 157.89 158 147.19 C159.75 142.57 161.78 138.54 164.31 134.31 C165.7 131.25 166.99 128.18 168.18 125.04 C173.11 112.18 178.18 102.5 191 96.44 C200.27 92.39 209.84 92.17 219.51 95.08 C229.71 99.56 237.04 108.28 241.19 118.44 C244.62 130.34 242.09 141.25 237.31 152.31 C236.94 153.2 236.58 154.09 236.2 155.01 C234.89 158.06 233.55 160.92 231.81 163.75 C230.48 166.02 229.57 168.1 228.62 170.54 C226.13 176.85 223.43 183.06 220.73 189.28 C219.88 191.24 219.03 193.21 218.18 195.17 C215.29 201.84 212.36 208.48 209.33 215.08 C207.94 218.14 206.63 221.22 205.31 224.31 C204.67 225.75 204.02 227.19 203.38 228.62 C201.95 231.83 200.6 235.05 199.31 238.31 C196.69 244.92 193.77 251.35 190.74 257.78 C188.1 263.39 185.54 268.98 183.33 274.77 C179.86 283.42 175.8 291.84 171.94 300.32 C169.67 305.29 167.45 310.28 165.31 315.31 C164.73 316.63 164.15 317.94 163.56 319.25 C161.61 323.64 159.68 328.04 157.75 332.44 C157.31 333.44 157.31 333.44 156.86 334.46 C156.01 336.41 155.16 338.36 154.31 340.31 C154.04 340.93 153.77 341.55 153.49 342.19 C152.06 345.49 150.8 348.79 149.62 352.19 C146 361.23 138.85 367.84 130.31 372.31 C121.38 375.65 110.23 375.84 101.33 372.28 C86.93 365.36 81.19 353.6 75.31 339.31 C75.03 338.7 74.76 338.08 74.47 337.44 C73.17 334.55 72.31 332.52 72.31 329.31 C71.65 329.31 70.99 329.31 70.31 329.31 C69.97 328.31 69.97 328.31 69.61 327.29 C67.54 321.42 65.22 315.76 62.59 310.11 C61.3 307.29 60.11 304.44 58.94 301.56 C57.02 296.91 54.96 292.36 52.81 287.81 C49.78 281.39 47 274.89 44.31 268.31 C40.92 260.04 37.35 251.85 33.69 243.69 C28.99 233.17 24.42 222.6 19.97 211.98 C16.56 203.87 13.04 195.84 9.31 187.88 C7.15 183.22 5.17 178.54 3.3 173.76 C1.87 170.21 0.26 166.75 -1.34 163.28 C-2.8 160.06 -4.18 156.82 -5.56 153.56 C-7.71 148.51 -9.97 143.53 -12.31 138.56 C-14.59 133.75 -16.68 128.92 -18.6 123.96 C-19.99 120.58 -21.56 117.3 -23.12 114 C-25.91 108.15 -28.31 102.23 -30.57 96.16 C-31.75 93.14 -33.15 90.34 -34.65 87.48 C-36.53 83.56 -37.95 79.45 -39.44 75.36 C-40.63 72.46 -42.05 69.98 -43.69 67.31 C-44.31 65.89 -44.89 64.45 -45.44 63 C-47.57 57.51 -49.93 52.14 -52.31 46.76 C-56.17 38.03 -56.64 30.02 -55.06 20.56 C-49.68 7.85 -43.13 2.09 -30.68 -3.49 C-20.14 -7.72 -9.55 -5.95 0 0 Z " fill="#1652D1" transform="translate(605.6875,294.6875)"/>
<path d="M0 0 C7.91 6.38 14.57 15.35 15.88 25.52 C16.03 29.22 16.03 32.93 16.04 36.64 C16.04 38.33 16.04 38.33 16.05 40.05 C16.07 43.81 16.08 47.58 16.08 51.35 C16.09 54.05 16.1 56.75 16.11 59.45 C16.14 65.26 16.15 71.08 16.17 76.89 C16.19 85.3 16.22 93.71 16.25 102.11 C16.3 115.75 16.34 129.39 16.38 143.03 C16.42 156.28 16.46 169.53 16.51 182.78 C16.51 183.6 16.51 184.41 16.51 185.26 C16.53 189.35 16.54 193.45 16.56 197.55 C16.67 231.54 16.78 265.53 16.88 299.52 C18.1 299.5 19.32 299.48 20.58 299.47 C25.14 299.41 29.71 299.38 34.27 299.35 C36.24 299.34 38.21 299.32 40.18 299.29 C43.03 299.25 45.87 299.24 48.71 299.22 C49.58 299.21 50.45 299.19 51.34 299.18 C65.1 299.17 74.27 305.09 83.88 314.52 C91.59 324.26 91.94 334.66 90.88 346.52 C89.75 353.5 85.96 357.93 81.19 362.89 C80.71 363.39 80.23 363.89 79.74 364.41 C72.94 370.98 65.48 373.12 56.2 373.05 C55.28 373.06 54.36 373.07 53.41 373.08 C50.39 373.1 47.37 373.09 44.35 373.08 C42.24 373.09 40.12 373.09 38 373.1 C33.58 373.11 29.16 373.11 24.73 373.09 C19.08 373.07 13.43 373.1 7.78 373.13 C3.42 373.16 -0.95 373.15 -5.31 373.15 C-7.4 373.14 -9.48 373.15 -11.56 373.17 C-32.23 373.29 -32.23 373.29 -40.12 367.52 C-40.87 367.02 -41.63 366.52 -42.4 366.01 C-49.76 361.05 -54.47 353.95 -57.12 345.52 C-57.68 341.08 -57.66 336.69 -57.62 332.22 C-57.63 330.88 -57.63 329.55 -57.64 328.21 C-57.65 324.56 -57.64 320.92 -57.63 317.27 C-57.62 313.32 -57.63 309.38 -57.64 305.44 C-57.65 297.72 -57.65 290.01 -57.63 282.29 C-57.61 273.3 -57.62 264.32 -57.62 255.33 C-57.63 239.29 -57.61 223.26 -57.59 207.22 C-57.56 191.66 -57.56 176.11 -57.57 160.55 C-57.58 143.6 -57.58 126.65 -57.57 109.71 C-57.56 107.9 -57.56 106.09 -57.56 104.28 C-57.56 103.39 -57.56 102.51 -57.56 101.59 C-57.55 95.33 -57.56 89.06 -57.56 82.8 C-57.57 75.17 -57.56 67.53 -57.54 59.9 C-57.53 56.01 -57.52 52.11 -57.53 48.22 C-57.54 44 -57.53 39.78 -57.51 35.56 C-57.51 34.33 -57.52 33.1 -57.53 31.83 C-57.48 25.59 -57.12 21.03 -54.12 15.52 C-53.82 14.79 -53.51 14.07 -53.2 13.33 C-48.66 3.4 -41.07 -1.45 -31.12 -5.48 C-20.22 -8.23 -9.33 -6.26 0 0 Z " fill="#1652D1" transform="translate(1012.12109375,295.484375)"/>
<path d="M0 0 C6.57 5.6 11.61 11.46 13.45 20.05 C13.71 23.45 13.72 26.84 13.76 30.24 C13.8 31.6 13.8 31.6 13.85 32.99 C13.92 40.85 12.14 47.16 6.96 53.2 C6.07 54.08 5.18 54.96 4.26 55.87 C3.38 56.76 2.5 57.65 1.59 58.57 C-5.25 64.44 -12.63 65.78 -21.43 65.68 C-22.88 65.67 -22.88 65.67 -24.37 65.65 C-35.66 65.3 -42.3 60.9 -50.09 52.98 C-51.62 50.97 -52.15 49.52 -52.55 47.05 C-53.21 47.05 -53.87 47.05 -54.55 47.05 C-59.11 35.4 -60.5 24.88 -55.55 13.05 C-49.34 2.76 -40.51 -4.26 -29.05 -7.7 C-18.16 -8.78 -8.79 -6.69 0 0 Z " fill="#1652D1" transform="translate(466.5546875,602.9453125)"/>
<path d="M0 0 C6.63 5.51 11.52 11.56 12.74 20.28 C13.47 31.67 14.08 42.43 6.37 51.53 C5.17 52.79 3.96 54.04 2.74 55.28 C1.96 56.19 1.17 57.1 0.37 58.03 C-6.33 63.77 -13.52 65.01 -22.13 64.91 C-23.1 64.9 -24.07 64.89 -25.07 64.88 C-34.89 64.58 -41.02 61.49 -48.13 54.84 C-54.08 48.37 -58.52 42.43 -58.26 33.28 C-58.59 32.95 -58.92 32.62 -59.26 32.28 C-59.92 23.48 -58.43 14.64 -53.07 7.47 C-38.28 -9.64 -18.76 -14.28 0 0 Z " fill="#1652D1" transform="translate(1197.2578125,603.71875)"/>
<path d="M0 0 C0 0.66 0 1.32 0 2 C0.99 1.67 1.98 1.34 3 1 C13.58 6.62 21.22 14.67 25 26 C25.25 29.2 25.23 32.41 25.25 35.62 C25.27 36.49 25.29 37.35 25.31 38.25 C25.37 47.03 23.76 53.93 17.5 60.38 C16.34 61.59 16.34 61.59 15.16 62.84 C14.09 63.91 14.09 63.91 13 65 C12.5 65.55 12.01 66.09 11.5 66.66 C5.69 71.86 -3.48 73.26 -11 73 C-17.76 72.05 -24.37 71.09 -30 67 C-30 66.34 -30 65.68 -30 65 C-30.72 64.79 -31.44 64.59 -32.19 64.38 C-39.59 60.76 -42.86 52.31 -45.79 45.04 C-48.44 36.62 -47.09 27.56 -43.44 19.69 C-37.86 9.69 -30.6 4.22 -20 0 C-13.58 -1.64 -6.41 -1.71 0 0 Z " fill="#1652D1" transform="translate(865,290)"/>
<path d="M0 0 C0.33 0 0.66 0 1 0 C1 103.29 1 206.58 1 313 C0.67 313 0.34 313 0 313 C0 209.71 0 106.42 0 0 Z " fill="#1652D1" transform="translate(954,322)"/>
<path d="M0 0 C0.33 0 0.66 0 1 0 C1 68.64 1 137.28 1 208 C0.67 208 0.34 208 0 208 C0 139.36 0 70.72 0 0 Z " fill="#000002" transform="translate(481,322)"/>
<path d="M0 0 C0.33 0 0.66 0 1 0 C1 3.3 1 6.6 1 10 C0.67 10 0.34 10 0 10 C0 6.7 0 3.4 0 0 Z " fill="#000002" transform="translate(481,628)"/>
<path d="M0 0 C0.33 0 0.66 0 1 0 C1 2.31 1 4.62 1 7 C0.67 7 0.34 7 0 7 C0 4.69 0 2.38 0 0 Z " fill="#000002" transform="translate(891,323)"/>
<path d="M0 0 C1 4 1 4 1 4 Z " fill="#000002" transform="translate(1211,631)"/>
<path d="M0 0 C3 1 3 1 3 1 Z " fill="#000002" transform="translate(448,561)"/>
<path d="M0 0 C3 1 3 1 3 1 Z " fill="#000002" transform="translate(439,561)"/>
</svg>
